<?xml version="1.0" encoding="iso-8859-1"?>
<!-- Uploaded to: SVG Repo, www.svgrepo.com, Generator: SVG Repo Mixer Tools -->
<svg height="800px" width="800px" version="1.1" id="Layer_1" xmlns="http://www.w3.org/2000/svg" xmlns:xlink="http://www.w3.org/1999/xlink" 
	 viewBox="0 0 512 512" xml:space="preserve">
<polygon style="fill:#00A653;" points="324.021,41.662 268.559,116.296 256.177,107.096 256,107.232 243.796,116.296 
	188.333,41.662 213.452,22.99 240.353,59.196 240.353,0 271.647,0 271.647,59.676 298.903,22.99 "/>
<polygon style="fill:#008040;" points="324.021,41.662 268.559,116.296 256.177,107.096 256,107.232 256,0 271.647,0 
	271.647,59.676 298.903,22.99 "/>
<path style="fill:#FF7953;" d="M349.098,177.61c0,10.64-0.939,24.69-2.629,40.879c-1.022,9.743-2.316,20.268-3.849,31.293
	c-4.183,30.167-10.139,64.047-17.055,95.924c-0.855,3.922-1.742,7.917-2.66,11.975c-2.326,10.191-4.871,20.737-7.646,31.293
	c-12.215,46.554-28.644,93.504-48.4,112.552L256,512l-10.859-10.473c-26.015-25.087-46.283-98.584-58.706-155.82
	c-2.243-10.348-4.391-20.914-6.394-31.491c-2.003-10.483-3.87-20.977-5.591-31.293c-5.059-30.407-8.783-59.301-10.504-81.78
	c-0.678-8.96-1.043-16.909-1.043-23.533c0-2.67,0.083-5.257,0.24-7.761c2.128-33.818,18.014-53.084,31.491-63.452
	c15.511-11.954,30.98-14.697,32.701-14.969l1.22-0.198h54.888l1.22,0.198c1.721,0.271,17.19,3.015,32.701,14.969
	C331.845,117.538,349.098,138.942,349.098,177.61z"/>
<path style="fill:#FF4F18;" d="M349.098,177.61c0,10.64-0.939,24.69-2.629,40.879c-1.022,9.743-2.316,20.268-3.849,31.293
	c-4.183,30.167-10.139,64.047-17.055,95.924c-0.855,3.922-1.742,7.917-2.66,11.975c-2.326,10.191-4.871,20.737-7.646,31.293
	c-12.215,46.554-28.644,93.504-48.4,112.552L256,512V91.23h27.444l1.22,0.198c1.721,0.271,17.19,3.015,32.701,14.969
	C331.845,117.538,349.098,138.942,349.098,177.61z"/>
<path style="fill:#FFDBA8;" d="M214.828,169.85v31.293h-50.883c-0.678-8.96-1.043-16.909-1.043-23.533
	c0-2.67,0.083-5.257,0.24-7.761H214.828z"/>
<path style="fill:#FFC473;" d="M346.469,218.49c-1.022,9.743-2.316,20.268-3.849,31.293h-52.771V218.49H346.469z"/>
<polygon style="fill:#FFDBA8;" points="180.041,314.216 230.569,314.216 230.569,282.923 174.45,282.923 "/>
<path style="fill:#FFC473;" d="M322.905,357.682c-2.326,10.191-4.871,20.737-7.646,31.293h-47.076v-31.293H322.905z"/>
</svg>